<svg width="141" height="36" viewBox="0 0 141 36" fill="none" xmlns="http://www.w3.org/2000/svg">
<path fill-rule="evenodd" clip-rule="evenodd" d="M15.039 7.81473C9.08945 3.42355 3.45945 1.72339 1.13587 4.02923C-1.18771 6.33507 0.469263 11.9779 4.81473 17.961C0.423547 23.9105 -1.27661 29.5405 1.02923 31.8641C3.33507 34.1877 8.97793 32.5307 14.9609 28.1852C20.9105 32.5764 26.5405 34.2766 28.8641 31.9708C31.1877 29.6649 29.5307 24.022 25.1852 18.039C29.5764 12.0894 31.2766 6.45942 28.9708 4.13584C26.6649 1.81225 21.022 3.46924 15.039 7.81473Z" fill="#5E96FC"/>
<path d="M50.04 21.008C50.04 22.328 49.416 23.168 48.168 23.168C46.896 23.168 46.248 22.304 46.224 20.888H42.864C42.864 24.272 45.072 26.168 48.216 26.168C51.312 26.168 53.424 24.32 53.424 21.008V9.248H50.04V21.008ZM69.7035 19.352C69.7035 15.152 66.7035 12.488 62.8635 12.488C59.0235 12.488 56.0235 15.152 56.0235 19.352C56.0235 23.528 58.9275 26.216 62.7675 26.216C66.6315 26.216 69.7035 23.528 69.7035 19.352ZM59.4315 19.352C59.4315 16.688 61.0395 15.416 62.8155 15.416C64.5915 15.416 66.2475 16.688 66.2475 19.352C66.2475 21.992 64.5435 23.288 62.7675 23.288C60.9675 23.288 59.4315 21.992 59.4315 19.352ZM75.0482 14.648V8.24H71.6882V26H75.0482V24.104C75.8642 25.256 77.3522 26.216 79.4402 26.216C82.8482 26.216 85.5122 23.456 85.5122 19.304C85.5122 15.152 82.8482 12.488 79.4402 12.488C77.4242 12.488 75.8642 13.424 75.0482 14.648ZM82.0802 19.304C82.0802 21.824 80.3762 23.264 78.5522 23.264C76.7522 23.264 75.0482 21.872 75.0482 19.352C75.0482 16.832 76.7522 15.44 78.5522 15.44C80.3762 15.44 82.0802 16.784 82.0802 19.304ZM100.314 19.352C100.314 15.152 97.3138 12.488 93.4738 12.488C89.6338 12.488 86.6338 15.152 86.6338 19.352C86.6338 23.528 89.5378 26.216 93.3778 26.216C97.2418 26.216 100.314 23.528 100.314 19.352ZM90.0418 19.352C90.0418 16.688 91.6498 15.416 93.4258 15.416C95.2018 15.416 96.8578 16.688 96.8578 19.352C96.8578 21.992 95.1538 23.288 93.3778 23.288C91.5778 23.288 90.0418 21.992 90.0418 19.352ZM105.659 19.376C105.659 16.808 106.859 16.04 108.851 16.04H109.739V12.512C107.891 12.512 106.499 13.4 105.659 14.768V12.704H102.299V26H105.659V19.376ZM117.234 15.248C118.962 15.248 120.354 16.352 120.402 18.104H114.09C114.354 16.28 115.626 15.248 117.234 15.248ZM123.546 21.824H119.922C119.49 22.712 118.698 23.432 117.258 23.432C115.578 23.432 114.234 22.328 114.066 20.36H123.786C123.858 19.928 123.882 19.496 123.882 19.064C123.882 15.104 121.17 12.488 117.33 12.488C113.394 12.488 110.658 15.152 110.658 19.352C110.658 23.528 113.466 26.216 117.33 26.216C120.618 26.216 122.826 24.272 123.546 21.824ZM124.99 19.304C124.99 23.456 127.678 26.216 131.062 26.216C133.15 26.216 134.638 25.256 135.43 24.032V26H138.838V8.24H135.43V14.552C134.518 13.304 132.838 12.488 131.086 12.488C127.678 12.488 124.99 15.152 124.99 19.304ZM135.454 19.352C135.454 21.872 133.774 23.264 131.926 23.264C130.126 23.264 128.422 21.824 128.422 19.304C128.422 16.784 130.126 15.44 131.926 15.44C133.774 15.44 135.454 16.832 135.454 19.352Z" fill="#232134"/>
</svg>
